<svg xmlns="http://www.w3.org/2000/svg" viewBox="0 0 64 64" fill="none">
  <rect width="64" height="64" rx="14" fill="#0a0a0f"/>
  <rect x="2" y="2" width="60" height="60" rx="12" stroke="#00ff88" stroke-width="1" opacity="0.35"/>
  <polygon points="32,7 51,18 51,38 32,49 13,38 13,18" fill="#1a1a2e" stroke="#ffe66d" stroke-width="3"/>
  <circle cx="32" cy="27" r="10" stroke="#00d4ff" stroke-width="2" fill="#0a0a0f"/>
  <circle cx="32" cy="27" r="3" fill="#00d4ff"/>
  <path d="M32 20v2.5M32 31.5v2.5M25 22.5l1.8 1.8M37.2 29.7l1.8 1.8M40 27h-2.5M24 27h-2.5M37.2 24.3l-1.8 1.8M25 31.5l1.8 1.8" stroke="#00d4ff" stroke-width="1.5" stroke-linecap="round"/>
  <path d="M21 35l7 7 15-15" stroke="#00ff88" stroke-width="4" stroke-linecap="round" stroke-linejoin="round"/>
</svg>
